
        <svg xmlns="http://www.w3.org/2000/svg" xmlns:xlink="http://www.w3.org/1999/xlink" version="1.1" width="3171.4285714285716" 
        height="1806.8634525681684" viewBox="0 -60 3171.4285714285716 1806.8634525681684">
			<rect fill="#8971d0" width="3171.4285714285716" height="1806.8634525681684"/>
			<g transform="scale(8.571428571428571) translate(10, 10)">
				<defs id="SvgjsDefs1795"></defs><g id="SvgjsG1796" featureKey="symbolFeature-0" transform="matrix(1.703739798159329,0,0,1.703739798159329,89.88244194417813,-48.84725739033555)" fill="#ffffff"><g xmlns="http://www.w3.org/2000/svg"><path d="M99.859,25.475l-17.184,5.448l0.148,0.955l-7.432,2.154l0.812,4.357l-9.449-0.511l-11.467-6.13   c0,0-3.842-1.529-12.662-1.374l-1.535,1.887l-17.486,1.95l0.317-2.498l-7.546-1.716l0.094-0.962L0.069,24.562v36.621l13.14,1.196   l0.136-1.39l6.896-0.201l0.354-2.796l1.54,0.058c0.569,3.421,4.459,3.065,4.459,3.065s0.591-0.329,1.25-0.774l0.665,0.512   l-1.581,1.176c-0.066,1.234,0.116,3.255,1.46,4.268c1.574,1.186,4.031,1.012,4.629,0.378c0.204-0.217,0.753-0.702,1.342-1.318   l0.725,0.558l-2.119,2.507c1.86,3.947,6.757,2.983,6.757,2.983l0.922-1.212l0.712,0.549l-0.701,0.944   c0.928,2.465,3.733,2.511,5.033,2.39l0.983,0.757l0.167,0.064c1.094,0.422,2.177,0.566,3.166,0.537   c2.346-0.084,4.178-1.047,5.043-1.589c0.748,0.19,1.459,0.268,2.121,0.248c2.152-0.059,3.703-1.147,4.625-2.153   c0.469-0.506,0.805-0.996,1.025-1.371c2.914-0.391,4.689-1.554,5.635-2.846c0.529-0.722,0.791-1.431,0.918-1.997   c2.148-0.406,3.617-1.679,4.465-2.863c0.996-1.375,1.301-2.646,1.326-2.739l0.148-0.614l-1.449-1.69l5.67-1.608l1.236,6.631   l6.896-0.201l0.217,1.38l12.051-1.903L99.859,25.475z M18.336,58.689l-4.494,0.131l3.6-26.371l4.098,0.932L18.336,58.689z    M71.562,61.768c-0.66,0.747-1.543,1.392-2.941,1.575l-9.303-11.425l-1.91,1.555l9.555,11.733c-0.068,0.293-0.205,0.672-0.49,1.052   c-0.525,0.696-1.572,1.551-4.07,1.878l-6.531-8.495l-1.953,1.5l6.555,8.525c-0.186,0.266-0.432,0.57-0.736,0.853   c-0.639,0.588-1.463,1.075-2.639,1.112c-0.445,0.014-0.957-0.046-1.537-0.204l-3.377-4.3l-1.937,1.521l2.759,3.512   c-0.773,0.378-1.877,0.786-3.074,0.813c-0.657,0.019-1.343-0.065-2.048-0.313l-0.562-0.433l2.062-3.772   c-0.427-4.093-4.288-2.748-4.288-2.748l-2.271,3.058l-0.693-0.532l2.532-3.333c0.851-5.978-4.854-4.579-4.854-4.579l-3.136,3.711   l-0.824-0.635c0.392-0.742,0.555-1.497,0.189-2.146c-1.262-2.234-3.842-2.017-5.205-1.715l-1.219-0.938   c0.207-0.971-0.987-3.193-3.402-3.524c-1.037-0.141-1.933,0.165-2.626,0.567l-2.682-0.099l2.384-18.816l15.585-1.736L38.864,35   c0,0,3.246,7.052,9.17,1.842l8.158,4.155l16.383,19.104C72.391,60.549,72.064,61.191,71.562,61.768z M82.547,60.635l-4.678-25.078   l4.037-1.169l5.133,26.116L82.547,60.635z"></path></g></g><g id="SvgjsG1797" featureKey="nameFeature-0" transform="matrix(1.8809519826521017,0,0,1.8809519826521017,-2.3323836156040554,85.03048385623366)" fill="#ffffff"><path d="M12.48 16.88 c0.64 0 1.28 0.24 1.72 0.72 c0.44 0.44 0.72 1.04 0.72 1.68 l0 2.32 c0 0.6 -0.28 1.24 -0.72 1.68 c-0.44 0.48 -1.08 0.72 -1.72 0.72 l-6.04 0 l0 -7.12 l6.04 0 z M14.16 21.6 l0 -2.32 c0 -0.44 -0.2 -0.84 -0.52 -1.16 c-0.28 -0.32 -0.72 -0.48 -1.16 -0.48 l-5.28 0 l0 5.6 l5.28 0 c0.44 0 0.88 -0.2 1.16 -0.48 c0.32 -0.32 0.52 -0.76 0.52 -1.16 z M12.48 28.439999999999998 c1.24 0 2.44 1.04 2.44 2.4 l0 2.32 c0 1.24 -1.08 2.4 -2.44 2.4 l-6.04 0 l0 -7.12 l6.04 0 z M14.16 33.16 l0 -2.32 c0 -0.84 -0.76 -1.64 -1.68 -1.64 l-5.28 0 l0 5.6 l5.28 0 c0.84 0 1.68 -0.72 1.68 -1.64 z M20.12 19.28 l0 2.32 c0 1.68 -0.56 3.28 -1.56 4.6 c1 1.36 1.56 2.96 1.56 4.64 l0 2.32 c0 2.04 -0.8 3.92 -2.24 5.36 s-3.36 2.24 -5.4 2.24 l-11.24 0 l0 -29.08 l11.24 0 c2.04 0 3.96 0.8 5.4 2.24 s2.24 3.32 2.24 5.36 z M19.36 21.6 l0 -2.32 c0 -1.8 -0.72 -3.52 -2 -4.84 c-1.32 -1.28 -3.04 -2 -4.88 -2 l-10.48 0 l0 27.56 l10.48 0 c1.84 0 3.56 -0.72 4.88 -2 c1.28 -1.32 2 -3.04 2 -4.84 l0 -2.32 c0 -1.52 -0.52 -2.96 -1.44 -4.16 l-0.36 -0.48 l0.36 -0.44 c0.92 -1.2 1.44 -2.64 1.44 -4.16 z M45.867999999999995 17.64 l-12.88 0 l0 5.6 l8.32 0 l0 5.96 l-8.32 0 l0 5.6 l12.88 0 l0 5.96 l-18.88 0 l0 -29.08 l18.88 0 l0 5.96 z M40.548 24 l-8.36 0 l0 -7.12 l12.92 0 l0 -4.44 l-17.32 0 l0 27.56 l17.32 0 l0 -4.44 l-12.92 0 l0 -7.12 l8.36 0 l0 -4.44 z M64.016 16.88 c1.28 -0.04 2.44 1.12 2.44 2.4 l0 13.88 c0 1.32 -1.16 2.4 -2.44 2.4 l-6.04 0 l0 -18.68 l6.04 0 z M65.696 33.16 l0 -13.88 c0 -0.88 -0.8 -1.64 -1.68 -1.64 l-5.28 0 l0 17.16 l5.28 0 c0.88 0 1.68 -0.76 1.68 -1.64 z M69.416 13.920000000000002 c1.44 1.44 2.24 3.32 2.24 5.36 l0 13.88 c0 4.16 -3.48 7.6 -7.64 7.6 l-11.24 0 l0 -29.08 l11.24 0 c2.04 0 3.96 0.8 5.4 2.24 z M70.896 33.16 l0 -13.88 c0 -3.76 -3.12 -6.84 -6.88 -6.84 l-10.48 0 l0 27.56 l10.48 0 c3.76 0 6.88 -3.08 6.88 -6.84 z M95.204 13.920000000000002 c1.44 1.44 2.24 3.32 2.24 5.36 l0 21.48 l-5.96 0 l0 -3.96 l-6.96 0 l0 3.96 l-5.96 0 l0 -21.48 c0 -2.04 0.8 -3.92 2.24 -5.36 s3.36 -2.24 5.4 -2.24 l3.64 0 c2 0 3.92 0.8 5.36 2.24 z M96.684 40 l0 -20.72 c0 -1.8 -0.72 -3.52 -2 -4.84 c-1.32 -1.28 -3.04 -2 -4.84 -2 l-3.64 0 c-1.84 0 -3.56 0.72 -4.84 2 c-1.32 1.32 -2.04 3.04 -2.04 4.84 l0 20.72 l4.44 0 l0 -3.96 l8.48 0 l0 3.96 l4.44 0 z M89.844 16.88 c0.64 0 1.24 0.24 1.68 0.72 c0.48 0.44 0.72 1.04 0.72 1.68 l0 12.32 l-8.48 0 l0 -12.32 c0 -0.64 0.28 -1.24 0.72 -1.68 c0.44 -0.48 1.08 -0.72 1.72 -0.72 l3.64 0 z M91.484 30.84 l0 -11.56 c0 -0.44 -0.2 -0.84 -0.48 -1.16 c-0.32 -0.32 -0.72 -0.48 -1.16 -0.48 l-3.64 0 c-0.44 0 -0.88 0.16 -1.16 0.48 c-0.32 0.32 -0.52 0.72 -0.52 1.16 l0 11.56 l6.96 0 z M115.512 17.2 c0.64 0 1.24 0.24 1.68 0.68 c0.48 0.48 0.72 1.08 0.72 1.72 l0 2.24 c0 0.64 -0.24 1.24 -0.72 1.72 c-0.44 0.44 -1.04 0.68 -1.68 0.68 l-6 0 l0 -7.04 l6 0 z M117.15199999999999 21.84 l0 -2.24 c0 -0.44 -0.16 -0.84 -0.48 -1.16 s-0.72 -0.48 -1.16 -0.48 l-5.24 0 l0 5.52 l5.24 0 c0.44 0 0.84 -0.16 1.16 -0.48 c0.32 -0.28 0.48 -0.72 0.48 -1.16 z M123.072 19.6 l0 2.24 c0 1.72 -0.56 3.28 -1.56 4.6 c1 1.32 1.56 2.92 1.56 4.6 l0 9.8 l-5.92 0 l0 -9.8 c0 -0.44 -0.2 -0.84 -0.48 -1.16 c-0.32 -0.32 -0.72 -0.48 -1.16 -0.48 l-5.24 0 l0 11.44 l-5.92 0 l0 -28.8 l11.16 0 c2 0 3.92 0.8 5.32 2.2 c1.44 1.44 2.24 3.32 2.24 5.36 z M122.312 21.84 l0 -2.24 c0 -1.84 -0.72 -3.52 -2 -4.8 s-3 -2 -4.8 -2 l-10.4 0 l0 27.28 l4.4 0 l0 -11.44 l6 0 c0.64 0 1.24 0.24 1.68 0.72 c0.48 0.44 0.72 1.04 0.72 1.68 l0 9.04 l4.4 0 l0 -9.04 c0 -1.52 -0.48 -2.92 -1.4 -4.12 l-0.36 -0.48 l0.36 -0.44 c0.92 -1.2 1.4 -2.64 1.4 -4.16 z M141.22 16.88 c0.64 0 1.28 0.24 1.72 0.72 c0.44 0.44 0.72 1.04 0.72 1.68 l0 2.32 c0 0.6 -0.28 1.24 -0.72 1.68 c-0.44 0.48 -1.08 0.72 -1.72 0.72 l-6.04 0 l0 -7.12 l6.04 0 z M142.9 21.6 l0 -2.32 c0 -0.44 -0.2 -0.84 -0.52 -1.16 c-0.28 -0.32 -0.72 -0.48 -1.16 -0.48 l-5.28 0 l0 5.6 l5.28 0 c0.44 0 0.88 -0.2 1.16 -0.48 c0.32 -0.32 0.52 -0.76 0.52 -1.16 z M141.22 28.439999999999998 c1.24 0 2.44 1.04 2.44 2.4 l0 2.32 c0 1.24 -1.08 2.4 -2.44 2.4 l-6.04 0 l0 -7.12 l6.04 0 z M142.9 33.16 l0 -2.32 c0 -0.84 -0.76 -1.64 -1.68 -1.64 l-5.28 0 l0 5.6 l5.28 0 c0.84 0 1.68 -0.72 1.68 -1.64 z M148.86 19.28 l0 2.32 c0 1.68 -0.56 3.28 -1.56 4.6 c1 1.36 1.56 2.96 1.56 4.64 l0 2.32 c0 2.04 -0.8 3.92 -2.24 5.36 s-3.36 2.24 -5.4 2.24 l-11.24 0 l0 -29.08 l11.24 0 c2.04 0 3.96 0.8 5.4 2.24 s2.24 3.32 2.24 5.36 z M148.10000000000002 21.6 l0 -2.32 c0 -1.8 -0.72 -3.52 -2 -4.84 c-1.32 -1.28 -3.04 -2 -4.88 -2 l-10.48 0 l0 27.56 l10.48 0 c1.84 0 3.56 -0.72 4.88 -2 c1.28 -1.32 2 -3.04 2 -4.84 l0 -2.32 c0 -1.52 -0.52 -2.96 -1.44 -4.16 l-0.36 -0.48 l0.36 -0.44 c0.92 -1.2 1.44 -2.64 1.44 -4.16 z M155.76800000000003 11.68 l5.96 0 l0 29.08 l-5.96 0 l0 -29.08 z M160.96800000000002 40 l0 -27.56 l-4.44 0 l0 27.56 l4.44 0 z M187.31600000000003 21.08 l-5.92 0 l0 -1.48 c0 -0.44 -0.16 -0.84 -0.48 -1.16 c-0.28 -0.32 -0.72 -0.48 -1.16 -0.48 l-3.56 0 c-0.44 0 -0.88 0.16 -1.16 0.48 c-0.32 0.32 -0.48 0.72 -0.48 1.16 l0 2.24 c0 0.44 0.16 0.88 0.48 1.16 c0.28 0.32 0.72 0.48 1.16 0.48 l3.56 0 c2.04 0 3.92 0.8 5.36 2.24 c1.4 1.4 2.2 3.32 2.2 5.32 l0 2.28 c0 2 -0.8 3.88 -2.2 5.32 c-1.44 1.44 -3.32 2.2 -5.36 2.2 l-3.56 0 c-2.04 0 -3.92 -0.76 -5.36 -2.2 s-2.2 -3.32 -2.2 -5.32 l0 -1.48 l5.92 0 l0 1.48 c0 0.44 0.16 0.84 0.48 1.16 c0.28 0.28 0.72 0.48 1.16 0.48 l3.56 0 c0.44 0 0.88 -0.2 1.16 -0.48 c0.32 -0.32 0.48 -0.72 0.48 -1.16 l0 -2.28 c0 -0.44 -0.16 -0.84 -0.48 -1.16 c-0.28 -0.32 -0.72 -0.48 -1.16 -0.48 l-3.56 0 c-2.04 0 -3.92 -0.8 -5.36 -2.2 c-1.44 -1.44 -2.2 -3.32 -2.2 -5.36 l0 -2.24 c0 -2.04 0.76 -3.92 2.2 -5.36 c1.44 -1.4 3.32 -2.2 5.36 -2.2 l3.56 0 c2.04 0 3.92 0.8 5.36 2.2 c1.4 1.44 2.2 3.32 2.2 5.36 l0 1.48 z M179.75600000000003 17.2 c0.64 0 1.24 0.24 1.72 0.68 c0.44 0.48 0.68 1.08 0.68 1.72 l0 0.72 l4.4 0 l0 -0.72 c0 -1.84 -0.72 -3.52 -2 -4.8 s-2.96 -2 -4.8 -2 l-3.56 0 c-1.84 0 -3.52 0.72 -4.8 2 c-1.32 1.28 -2 2.96 -2 4.8 l0 2.24 c0 1.84 0.68 3.52 2 4.8 c1.28 1.28 2.96 2 4.8 2 l3.56 0 c0.64 0 1.24 0.24 1.72 0.72 c0.44 0.44 0.68 1.04 0.68 1.68 l0 2.28 c0 0.64 -0.24 1.24 -0.68 1.68 c-0.48 0.44 -1.08 0.72 -1.72 0.72 l-3.56 0 c-0.68 0 -1.28 -0.28 -1.72 -0.72 s-0.68 -1.04 -0.68 -1.68 l0 -0.72 l-4.4 0 l0 0.72 c0 1.8 0.68 3.52 2 4.8 c1.28 1.28 2.96 1.96 4.8 1.96 l3.56 0 c1.84 0 3.52 -0.68 4.8 -1.96 s2 -3 2 -4.8 l0 -2.28 c0 -1.8 -0.72 -3.52 -2 -4.8 s-2.96 -2 -4.8 -2 l-3.56 0 c-0.68 0 -1.28 -0.24 -1.72 -0.68 c-0.44 -0.48 -0.68 -1.08 -0.68 -1.72 l0 -2.24 c0 -0.64 0.24 -1.24 0.68 -1.72 c0.44 -0.44 1.04 -0.68 1.72 -0.68 l3.56 0 z"></path></g><g id="SvgjsG1798" featureKey="sloganFeature-0" transform="matrix(0.5125528069367729,0,0,0.5125528069367729,50.486308147177795,173.49874322110844)" fill="#ffffff"><path d="M1.02 6.539999999999999 c0 0.96 -0.04 11.28 0 12.2 c0.02 0.22 0.02 0.44 0.02 0.66 c0 0.16 0.1 0.26 0.24 0.32 c0.12 0.04 0.28 0.08 0.4 0.08 c0.58 -0.06 1.2 0 1.8 -0.02 c1.04 0.08 1.98 -0.16 2.88 -0.64 c0.84 -0.48 1.3 -1.34 1.62 -2.24 c0.26 -0.76 0.22 -1.66 0.08 -2.44 c-0.12 -0.7 -0.44 -1.38 -0.86 -1.94 c-0.06 -0.08 -0.92 -0.62 -0.88 -0.66 c0.52 -0.74 1.26 -1.36 1.36 -2.28 c0.08 -0.8 -0.1 -1.62 -0.38 -2.36 c-0.18 -0.48 -0.42 -0.94 -0.8 -1.3 c-0.64 -0.6 -1.6 -0.86 -2.44 -0.94 c-0.86 -0.08 -1.66 -0.02 -2.52 -0.06 c-0.3 0 -0.44 0.12 -0.44 0.44 c0 0.42 -0.08 0.76 -0.08 1.18 z M3.48 10.18 c-0.02 -0.22 0 -1.98 -0.04 -2.64 c-0.02 -0.24 0.12 -0.36 0.38 -0.3 c0.2 0.04 0.36 0.06 0.52 0.18 c0.5 0.38 0.88 0.84 0.9 1.48 c0 0.32 0 0.64 -0.12 0.94 c-0.14 0.36 -0.34 0.64 -0.7 0.82 c-0.24 0.12 -0.46 0.26 -0.7 0.36 c-0.12 0.04 -0.24 -0.02 -0.26 -0.14 c0 -0.24 0.02 -0.7 0.02 -0.7 z M5.48 15.48 c0 0.1 -0.02 0.28 -0.02 0.46 c-0.02 0.6 -0.8 1.36 -1.7 1.38 c-0.06 0 -0.16 -0.06 -0.18 -0.12 c-0.04 -0.12 -0.08 -0.26 -0.08 -0.4 c-0.02 -0.62 0 -1.22 0 -1.88 c0.06 -0.42 0.02 -0.86 0.02 -1.3 c0.02 -0.34 0.1 -0.4 0.42 -0.46 c0.48 -0.06 0.92 0.14 1.14 0.52 c0.26 0.46 0.36 0.96 0.4 1.48 l0 0.32 z M19.826 8.28 c0 2.02 0.02 4.06 0.06 6.06 c0.02 1.22 0 2.6 0.58 3.72 c0.74 1.44 2.38 2.08 3.96 1.98 c1.08 -0.08 2.08 -0.36 2.86 -1.16 c1.32 -1.42 1.06 -3.64 1.08 -5.46 c0.04 -2.62 0.1 -5.06 0.1 -7.7 c0 -0.44 -0.14 -0.68 -0.58 -0.7 c-0.54 -0.02 -1.08 0 -1.62 0.04 c-0.22 0 -0.4 0.2 -0.4 0.44 c0.02 1.92 0.06 3.86 0.04 5.8 c-0.02 1.66 0.2 3.5 -0.42 5.08 c-0.24 0.58 -0.78 1.02 -1.42 1.02 c-1.6 -0.04 -1.54 -1.94 -1.6 -3.06 c-0.12 -2.44 0.06 -4.94 0.12 -7.38 c0 -0.46 0 -0.92 0.02 -1.38 c0.02 -0.24 0.06 -0.54 -0.26 -0.56 l-0.36 0 c-0.5 0.04 -1 -0.02 -1.5 0 c-0.48 0.04 -0.64 0.18 -0.64 0.66 c0 0.86 -0.02 1.74 -0.02 2.6 z M42.832 16.38 c0 -0.7 -0.1 -2.6 -0.08 -3 c0 -0.06 0.04 -0.14 0.06 -0.14 c0.04 0 0.12 0.04 0.14 0.06 c0.64 0.84 3.64 6.66 4 6.68 c0.1 0.02 0.2 0.02 0.3 0.02 c0.68 -0.04 1.28 0 1.96 0 c0.7 0 0.24 -0.68 0.12 -0.86 c-0.18 -0.26 -2.56 -4.52 -2.7 -4.78 c-0.4 -0.68 -0.74 -1.42 -1.14 -2.08 c-0.04 -0.08 -0.08 -0.2 -0.06 -0.28 c0.04 -0.24 0.1 -0.46 0.2 -0.68 c0.48 -0.94 0.98 -1.9 1.56 -2.8 c0.64 -1.02 1 -1.66 1.52 -2.58 c0.12 -0.22 0.2 -0.46 0.28 -0.72 c0.02 -0.1 -0.06 -0.2 -0.18 -0.2 c-0.38 -0.02 -1.76 0 -2.2 0 c-0.2 0 -0.4 0.04 -0.5 0.22 c-0.26 0.5 -2.94 5.4 -3.2 5.84 c-0.02 0.04 -0.08 0.06 -0.14 0.06 c0 0 -0.04 -0.06 -0.04 -0.1 c-0.02 -1.12 0.18 -4.78 0.14 -5.52 c-0.02 -0.44 -0.1 -0.48 -0.54 -0.5 c-0.48 -0.02 -1.14 -0.02 -1.62 -0.02 c-0.44 0 -0.48 0.24 -0.54 0.56 c-0.02 0.06 -0.02 1.94 -0.02 2.78 c0 1.22 -0.1 8.86 0.04 11.28 c0 0.24 0.06 0.38 0.26 0.38 c0.54 -0.04 1.34 0 1.88 0 c0.38 0 0.44 -0.04 0.44 -0.68 c0 -0.86 0.08 -1.64 0.08 -2.7 c0 -0.08 -0.02 -0.16 -0.02 -0.24 z M78.644 14.84 c-0.06 -2.28 -0.04 -4.7 -0.02 -6.96 c0 -0.7 -0.04 -1.46 -0.04 -2.16 c0 -0.76 -0.3 -0.72 -0.7 -0.74 c-0.58 -0.02 -0.84 -0.02 -1.42 -0.02 c-0.38 -0.02 -0.54 0.08 -0.54 0.46 c0 1.96 -0.06 7.5 -0.04 8.3 s0.1 4.44 0.06 5.24 c-0.02 0.28 0 0.56 0.02 0.84 c0.02 0.1 0.08 0.2 0.24 0.2 c0.66 -0.04 1.28 -0.04 1.94 -0.06 c0.24 -0.02 0.44 -0.08 0.54 -0.34 c0.02 -0.14 -0.04 -3.8 -0.04 -4.76 z M98.75 16.32 c0.12 -0.26 0.22 -0.52 0.32 -0.78 c0.22 -0.64 0.26 -1.3 0.32 -1.96 c0.12 -1.4 0.08 -2.82 -0.28 -4.18 c-0.44 -1.74 -1.56 -3.34 -3.24 -4.08 c-0.76 -0.34 -1.62 -0.38 -2.44 -0.36 c-0.86 0 -1.74 -0.04 -2.6 0.04 c-0.24 0.02 -0.36 0.14 -0.4 0.36 c-0.04 0.24 -0.08 0.48 -0.08 0.7 c0.04 1.22 0 4.84 0.04 5.44 c0.02 0.54 -0.04 1.2 -0.04 1.74 c0.02 1.34 0 2.7 0 4.04 c0 0.56 -0.02 1.1 -0.02 1.66 c0 0.6 -0.22 0.86 1.42 0.86 c1.46 0 2.98 -0.12 4.36 -0.64 c1.28 -0.46 2.08 -1.64 2.64 -2.84 z M92.92999999999999 14.24 l0 -2.4 c0 -1.52 0.04 -2.5 -0.02 -3.78 l0 -0.24 c0.02 -0.42 0.08 -0.44 0.52 -0.44 c0.58 -0.02 1 0.12 1.5 0.32 s0.78 0.64 1.04 1.06 c0.5 0.82 0.7 1.72 0.74 2.66 c0.02 0.54 0.04 1.08 0.04 1.62 c0 2.56 -1.5 4.34 -2.82 4.34 c-0.88 0 -1.02 0.06 -1.02 -0.52 c0 -0.6 0.04 -1.2 0.04 -1.8 c-0.02 -0.26 -0.02 -0.54 -0.02 -0.82 z M112.936 19.84 c0.06 0.02 0.24 0.02 0.42 0.02 c0.4 0 0.52 -1.44 0.56 -1.74 c0.02 -0.24 0.08 -0.26 0.28 -0.3 c1 -0.12 1.5 -0.04 2.5 -0.02 c0.22 0 0.34 0.1 0.4 0.28 l0.14 0.46 c0.12 0.34 0.22 0.76 0.34 1.1 c0.08 0.24 0.1 0.22 0.34 0.22 c0.32 0 1.48 0 1.82 -0.02 c0.46 0 0.14 -0.94 0.08 -1.1 c-0.18 -0.56 -0.22 -1.14 -0.4 -1.7 c-0.08 -0.24 -2.36 -11.06 -2.46 -11.66 c-0.14 -0.36 -0.02 -0.38 -0.34 -0.38 c-0.68 0 -1.4 0.04 -2.1 0 c-0.28 0 -0.26 0.08 -0.3 0.38 c-0.04 0.28 -0.76 3.46 -1.04 4.78 c-0.36 1.66 -0.68 3.26 -1.08 4.9 c-0.14 0.58 -1.1 4.76 -0.98 4.78 c0.06 0.04 0.16 0.02 0.24 0.02 c0.5 0 0.96 0 1.58 -0.02 z M115.556 15.3 l-0.42 0 c-0.56 0 -0.58 0 -0.44 -0.58 c0.1 -0.44 0.64 -2.82 0.76 -3.4 c0.02 -0.04 0.06 -0.08 0.08 -0.08 c0.04 0 0.08 0.04 0.1 0.06 c0.08 0.24 0.16 0.84 0.24 1.08 c0.18 0.76 0.3 1.4 0.48 2.22 c0.18 0.72 0.1 0.72 -0.26 0.72 c-0.18 0 -0.36 -0.02 -0.54 -0.02 z M134.102 18.5 c0 -0.52 0 -3.8 0.02 -4.06 c0.02 -0.06 0.06 -0.18 0.14 -0.18 s0.12 0.04 0.14 0.1 c0.8 1.56 1.5 3.12 2.22 4.64 c0.1 0.22 0.32 0.86 0.38 0.92 c0.08 0.12 0.22 0.08 0.34 0.08 l2.2 0.02 c0.26 0 0.32 -0.16 0.26 -0.38 c-0.16 -0.6 -1.3 -2.72 -1.56 -3.24 c-0.18 -0.4 -1.38 -2.72 -1.42 -2.9 c-0.04 -0.08 0.26 -0.22 0.3 -0.28 c0.96 -0.86 1.82 -1.74 2 -3.08 c0.2 -1.32 -0.1 -2.76 -0.96 -3.82 c-0.66 -0.78 -1.52 -1.24 -2.54 -1.3 c-0.62 -0.04 -1.22 0.02 -1.84 0 c-0.54 -0.02 -0.92 -0.02 -1.6 -0.02 c-0.32 0 -0.52 0.18 -0.54 0.52 l0 0.24 c-0.04 1.54 0 3.08 0.02 4.6 c0 2.32 -0.04 8.44 -0.04 9.32 c0 0.26 0.04 0.32 0.28 0.32 c0.14 0 0.3 0.02 0.44 0.02 c0.56 0 0.9 -0.02 1.48 -0.02 c0.44 0 0.28 -0.72 0.28 -1.5 z M134.102 10.7 l0.02 -2.02 c0.02 -0.3 -0.08 -0.9 0.2 -1.12 c0.38 -0.28 1.16 0 1.5 0.24 c1 0.68 0.92 2.36 0.38 3.3 c-0.26 0.44 -0.7 0.7 -1.2 0.84 c-0.3 0.08 -0.86 0.18 -0.88 -0.3 c0 -0.32 -0.02 -0.94 -0.02 -0.94 z M151.48800000000003 6.539999999999999 c0 0.96 -0.04 11.28 0 12.2 c0.02 0.22 0.02 0.44 0.02 0.66 c0 0.16 0.1 0.26 0.24 0.32 c0.12 0.04 0.28 0.08 0.4 0.08 c0.58 -0.06 1.2 0 1.8 -0.02 c1.04 0.08 1.98 -0.16 2.88 -0.64 c0.84 -0.48 1.3 -1.34 1.62 -2.24 c0.26 -0.76 0.22 -1.66 0.08 -2.44 c-0.12 -0.7 -0.44 -1.38 -0.86 -1.94 c-0.06 -0.08 -0.92 -0.62 -0.88 -0.66 c0.52 -0.74 1.26 -1.36 1.36 -2.28 c0.08 -0.8 -0.1 -1.62 -0.38 -2.36 c-0.18 -0.48 -0.42 -0.94 -0.8 -1.3 c-0.64 -0.6 -1.6 -0.86 -2.44 -0.94 c-0.86 -0.08 -1.66 -0.02 -2.52 -0.06 c-0.3 0 -0.44 0.12 -0.44 0.44 c0 0.42 -0.08 0.76 -0.08 1.18 z M153.948 10.18 c-0.02 -0.22 0 -1.98 -0.04 -2.64 c-0.02 -0.24 0.12 -0.36 0.38 -0.3 c0.2 0.04 0.36 0.06 0.52 0.18 c0.5 0.38 0.88 0.84 0.9 1.48 c0 0.32 0 0.64 -0.12 0.94 c-0.14 0.36 -0.34 0.64 -0.7 0.82 c-0.24 0.12 -0.46 0.26 -0.7 0.36 c-0.12 0.04 -0.24 -0.02 -0.26 -0.14 c0 -0.24 0.02 -0.7 0.02 -0.7 z M155.948 15.48 c0 0.1 -0.02 0.28 -0.02 0.46 c-0.02 0.6 -0.8 1.36 -1.7 1.38 c-0.06 0 -0.16 -0.06 -0.18 -0.12 c-0.04 -0.12 -0.08 -0.26 -0.08 -0.4 c-0.02 -0.62 0 -1.22 0 -1.88 c0.06 -0.42 0.02 -0.86 0.02 -1.3 c0.02 -0.34 0.1 -0.4 0.42 -0.46 c0.48 -0.06 0.92 0.14 1.14 0.52 c0.26 0.46 0.36 0.96 0.4 1.48 l0 0.32 z M173.054 14.84 c-0.06 -2.28 -0.04 -4.7 -0.02 -6.96 c0 -0.7 -0.04 -1.46 -0.04 -2.16 c0 -0.76 -0.3 -0.72 -0.7 -0.74 c-0.58 -0.02 -0.84 -0.02 -1.42 -0.02 c-0.38 -0.02 -0.54 0.08 -0.54 0.46 c0 1.96 -0.06 7.5 -0.04 8.3 s0.1 4.44 0.06 5.24 c-0.02 0.28 0 0.56 0.02 0.84 c0.02 0.1 0.08 0.2 0.24 0.2 c0.66 -0.04 1.28 -0.04 1.94 -0.06 c0.24 -0.02 0.44 -0.08 0.54 -0.34 c0.02 -0.14 -0.04 -3.8 -0.04 -4.76 z M193.26000000000002 5.460000000000001 c0.06 0.28 0.02 13.6 0.02 13.94 c0 0.6 -0.22 0.58 -0.62 0.58 c-0.6 0 -1.44 0.1 -1.62 -0.1 c-0.16 -0.14 -3.12 -7.28 -3.54 -8.18 c-0.04 -0.08 -0.14 -0.28 -0.22 -0.24 c-0.1 0.04 -0.06 0.18 -0.06 0.26 c-0.02 0.7 0.1 6.74 0.1 7.7 c0 0.48 -0.02 0.56 -0.42 0.56 l-1 0 c-0.26 0 -0.58 -0.02 -0.84 0.02 c-0.2 0 -0.3 -0.06 -0.32 -0.26 l0 -1.58 c0.04 -1.68 0 -11.64 0 -12.38 c0 -0.64 0.18 -0.76 0.82 -0.76 c0.44 -0.02 0.88 -0.02 1.32 -0.02 c0.14 0 0.22 0.02 0.3 0.2 c0.54 1.26 2.84 7.04 3.2 7.74 c0.06 0.14 0.28 0.7 0.4 0.76 l0.02 0 c0.08 -0.08 0.06 -0.48 0.06 -0.6 c0 -0.3 -0.16 -7.32 -0.16 -7.46 c0 -0.2 -0.06 -0.38 0.04 -0.52 c0.06 -0.08 0.32 -0.1 0.42 -0.12 c0.56 -0.04 1.22 0.02 1.78 0 c0.28 0 0.26 0.2 0.32 0.46 z M207.48600000000002 17.82 c0.02 0.62 0.02 1.24 0.04 1.86 c0 0.28 0.02 0.32 0.3 0.32 l1.8 0 c0.38 0 0.3 -0.64 0.28 -0.98 l0.06 -11.2 c0 -0.3 0.1 -0.4 0.5 -0.4 l1.76 0 c0.42 0 0.32 -0.72 0.32 -1.22 c0 -0.44 0.16 -1.2 -0.32 -1.2 c-0.34 0 -3.6 0 -4.94 0.02 c-0.66 0 -1.2 -0.02 -1.86 -0.02 c-0.5 0 -0.48 0.4 -0.48 1.28 c0 0.56 -0.02 1.12 0.46 1.12 c0.28 0 1.42 0 1.74 0.02 c0.2 0 0.34 0.06 0.38 0.28 c0 0.06 0.02 0.12 0.02 0.18 c0 1.44 -0.1 8.14 -0.06 9.94 z M226.05200000000002 19.84 c0.06 0.02 0.24 0.02 0.42 0.02 c0.4 0 0.52 -1.44 0.56 -1.74 c0.02 -0.24 0.08 -0.26 0.28 -0.3 c1 -0.12 1.5 -0.04 2.5 -0.02 c0.22 0 0.34 0.1 0.4 0.28 l0.14 0.46 c0.12 0.34 0.22 0.76 0.34 1.1 c0.08 0.24 0.1 0.22 0.34 0.22 c0.32 0 1.48 0 1.82 -0.02 c0.46 0 0.14 -0.94 0.08 -1.1 c-0.18 -0.56 -0.22 -1.14 -0.4 -1.7 c-0.08 -0.24 -2.36 -11.06 -2.46 -11.66 c-0.14 -0.36 -0.02 -0.38 -0.34 -0.38 c-0.68 0 -1.4 0.04 -2.1 0 c-0.28 0 -0.26 0.08 -0.3 0.38 c-0.04 0.28 -0.76 3.46 -1.04 4.78 c-0.36 1.66 -0.68 3.26 -1.08 4.9 c-0.14 0.58 -1.1 4.76 -0.98 4.78 c0.06 0.04 0.16 0.02 0.24 0.02 c0.5 0 0.96 0 1.58 -0.02 z M228.67200000000003 15.3 l-0.42 0 c-0.56 0 -0.58 0 -0.44 -0.58 c0.1 -0.44 0.64 -2.82 0.76 -3.4 c0.02 -0.04 0.06 -0.08 0.08 -0.08 c0.04 0 0.08 0.04 0.1 0.06 c0.08 0.24 0.16 0.84 0.24 1.08 c0.18 0.76 0.3 1.4 0.48 2.22 c0.18 0.72 0.1 0.72 -0.26 0.72 c-0.18 0 -0.36 -0.02 -0.54 -0.02 z M248.81800000000004 4.9 c-0.38 0.02 -0.76 0.08 -1.14 0.2 c-0.82 0.28 -1.56 0.84 -2.06 1.56 c-0.44 0.66 -0.62 1.44 -0.68 2.22 c-0.04 0.6 0.02 1.22 0.3 1.76 c0.3 0.58 0.82 1.08 1.26 1.56 c0.4 0.42 0.8 0.84 1.24 1.22 c0.4 0.38 0.86 0.68 1.26 1.08 c0.58 0.58 0.8 1.9 0.38 2.62 c-0.5 0.8 -1.68 0.92 -2.46 0.66 c-0.4 -0.14 -0.76 -0.44 -1.1 -0.68 c-0.2 -0.14 -0.44 -0.2 -0.58 0.04 c-0.08 0.12 -0.12 0.26 -0.16 0.38 c-0.14 0.5 -0.32 0.96 -0.34 1.5 c-0.02 0.62 1.16 0.8 1.6 0.9 c1.96 0.46 4.32 0.1 5.34 -1.84 c0.2 -0.4 0.34 -0.82 0.42 -1.26 c0.02 -0.16 0.04 -0.3 0.04 -0.46 c0.08 -1.28 -0.44 -2.36 -1.22 -3.32 c-0.84 -1.04 -1.9 -1.76 -2.88 -2.66 c-0.6 -0.56 -0.82 -1.44 -0.64 -2.24 c0.18 -0.86 1.16 -1.08 1.9 -0.86 c0.22 0.06 0.4 0.16 0.6 0.28 c0.12 0.06 0.24 0.14 0.4 0.14 c0.28 0.02 0.32 -0.2 0.38 -0.42 c0.14 -0.5 0.38 -0.9 0.48 -1.38 c0.1 -0.54 -0.34 -0.64 -0.78 -0.78 c-0.52 -0.14 -1.02 -0.24 -1.56 -0.22 z M280.7900000000001 5.58 c0 0.28 0.06 9.76 0.06 10.92 c0 0.26 -0.06 0.52 -0.2 0.74 c-0.1 0.2 -0.3 0.44 -0.56 0.44 c-0.28 0 -0.58 -0.1 -0.86 -0.2 c-0.14 -0.08 -0.48 -0.32 -0.52 0 c-0.06 0.52 -0.22 1.84 -0.28 2.24 c0 0.1 0.26 0.14 0.3 0.16 c0.52 0.1 1.08 0.14 1.6 0.14 c0.54 0.02 1.08 -0.06 1.56 -0.34 c0.82 -0.48 1.46 -1.4 1.46 -2.4 l0.04 -11.12 c0 -0.12 0.04 -0.76 -0.04 -0.96 c-0.12 -0.32 -0.56 -0.24 -0.82 -0.24 c-0.44 0 -0.88 -0.04 -1.3 0 c-0.4 0.04 -0.44 0.16 -0.44 0.62 z M296.87600000000003 19.84 c0.06 0.02 0.24 0.02 0.42 0.02 c0.4 0 0.52 -1.44 0.56 -1.74 c0.02 -0.24 0.08 -0.26 0.28 -0.3 c1 -0.12 1.5 -0.04 2.5 -0.02 c0.22 0 0.34 0.1 0.4 0.28 l0.14 0.46 c0.12 0.34 0.22 0.76 0.34 1.1 c0.08 0.24 0.1 0.22 0.34 0.22 c0.32 0 1.48 0 1.82 -0.02 c0.46 0 0.14 -0.94 0.08 -1.1 c-0.18 -0.56 -0.22 -1.14 -0.4 -1.7 c-0.08 -0.24 -2.36 -11.06 -2.46 -11.66 c-0.14 -0.36 -0.02 -0.38 -0.34 -0.38 c-0.68 0 -1.4 0.04 -2.1 0 c-0.28 0 -0.26 0.08 -0.3 0.38 c-0.04 0.28 -0.76 3.46 -1.04 4.78 c-0.36 1.66 -0.68 3.26 -1.08 4.9 c-0.14 0.58 -1.1 4.76 -0.98 4.78 c0.06 0.04 0.16 0.02 0.24 0.02 c0.5 0 0.96 0 1.58 -0.02 z M299.49600000000004 15.3 l-0.42 0 c-0.56 0 -0.58 0 -0.44 -0.58 c0.1 -0.44 0.64 -2.82 0.76 -3.4 c0.02 -0.04 0.06 -0.08 0.08 -0.08 c0.04 0 0.08 0.04 0.1 0.06 c0.08 0.24 0.16 0.84 0.24 1.08 c0.18 0.76 0.3 1.4 0.48 2.22 c0.18 0.72 0.1 0.72 -0.26 0.72 c-0.18 0 -0.36 -0.02 -0.54 -0.02 z M315.56200000000007 8.28 c0 2.02 0.02 4.06 0.06 6.06 c0.02 1.22 0 2.6 0.58 3.72 c0.74 1.44 2.38 2.08 3.96 1.98 c1.08 -0.08 2.08 -0.36 2.86 -1.16 c1.32 -1.42 1.06 -3.64 1.08 -5.46 c0.04 -2.62 0.1 -5.06 0.1 -7.7 c0 -0.44 -0.14 -0.68 -0.58 -0.7 c-0.54 -0.02 -1.08 0 -1.62 0.04 c-0.22 0 -0.4 0.2 -0.4 0.44 c0.02 1.92 0.06 3.86 0.04 5.8 c-0.02 1.66 0.2 3.5 -0.42 5.08 c-0.24 0.58 -0.78 1.02 -1.42 1.02 c-1.6 -0.04 -1.54 -1.94 -1.6 -3.06 c-0.12 -2.44 0.06 -4.94 0.12 -7.38 c0 -0.46 0 -0.92 0.02 -1.38 c0.02 -0.24 0.06 -0.54 -0.26 -0.56 l-0.36 0 c-0.5 0.04 -1 -0.02 -1.5 0 c-0.48 0.04 -0.64 0.18 -0.64 0.66 c0 0.86 -0.02 1.74 -0.02 2.6 z M354.57400000000007 4.9 c-0.38 0.02 -0.76 0.08 -1.14 0.2 c-0.82 0.28 -1.56 0.84 -2.06 1.56 c-0.44 0.66 -0.62 1.44 -0.68 2.22 c-0.04 0.6 0.02 1.22 0.3 1.76 c0.3 0.58 0.82 1.08 1.26 1.56 c0.4 0.42 0.8 0.84 1.24 1.22 c0.4 0.38 0.86 0.68 1.26 1.08 c0.58 0.58 0.8 1.9 0.38 2.62 c-0.5 0.8 -1.68 0.92 -2.46 0.66 c-0.4 -0.14 -0.76 -0.44 -1.1 -0.68 c-0.2 -0.14 -0.44 -0.2 -0.58 0.04 c-0.08 0.12 -0.12 0.26 -0.16 0.38 c-0.14 0.5 -0.32 0.96 -0.34 1.5 c-0.02 0.62 1.16 0.8 1.6 0.9 c1.96 0.46 4.32 0.1 5.34 -1.84 c0.2 -0.4 0.34 -0.82 0.42 -1.26 c0.02 -0.16 0.04 -0.3 0.04 -0.46 c0.08 -1.28 -0.44 -2.36 -1.22 -3.32 c-0.84 -1.04 -1.9 -1.76 -2.88 -2.66 c-0.6 -0.56 -0.82 -1.44 -0.64 -2.24 c0.18 -0.86 1.16 -1.08 1.9 -0.86 c0.22 0.06 0.4 0.16 0.6 0.28 c0.12 0.06 0.24 0.14 0.4 0.14 c0.28 0.02 0.32 -0.2 0.38 -0.42 c0.14 -0.5 0.38 -0.9 0.48 -1.38 c0.1 -0.54 -0.34 -0.64 -0.78 -0.78 c-0.52 -0.14 -1.02 -0.24 -1.56 -0.22 z M372.30000000000007 14.84 c-0.06 -2.28 -0.04 -4.7 -0.02 -6.96 c0 -0.7 -0.04 -1.46 -0.04 -2.16 c0 -0.76 -0.3 -0.72 -0.7 -0.74 c-0.58 -0.02 -0.84 -0.02 -1.42 -0.02 c-0.38 -0.02 -0.54 0.08 -0.54 0.46 c0 1.96 -0.06 7.5 -0.04 8.3 s0.1 4.44 0.06 5.24 c-0.02 0.28 0 0.56 0.02 0.84 c0.02 0.1 0.08 0.2 0.24 0.2 c0.66 -0.04 1.28 -0.04 1.94 -0.06 c0.24 -0.02 0.44 -0.08 0.54 -0.34 c0.02 -0.14 -0.04 -3.8 -0.04 -4.76 z M385.8260000000001 19.84 c0.06 0.02 0.24 0.02 0.42 0.02 c0.4 0 0.52 -1.44 0.56 -1.74 c0.02 -0.24 0.08 -0.26 0.28 -0.3 c1 -0.12 1.5 -0.04 2.5 -0.02 c0.22 0 0.34 0.1 0.4 0.28 l0.14 0.46 c0.12 0.34 0.22 0.76 0.34 1.1 c0.08 0.24 0.1 0.22 0.34 0.22 c0.32 0 1.48 0 1.82 -0.02 c0.46 0 0.14 -0.94 0.08 -1.1 c-0.18 -0.56 -0.22 -1.14 -0.4 -1.7 c-0.08 -0.24 -2.36 -11.06 -2.46 -11.66 c-0.14 -0.36 -0.02 -0.38 -0.34 -0.38 c-0.68 0 -1.4 0.04 -2.1 0 c-0.28 0 -0.26 0.08 -0.3 0.38 c-0.04 0.28 -0.76 3.46 -1.04 4.78 c-0.36 1.66 -0.68 3.26 -1.08 4.9 c-0.14 0.58 -1.1 4.76 -0.98 4.78 c0.06 0.04 0.16 0.02 0.24 0.02 c0.5 0 0.96 0 1.58 -0.02 z M388.4460000000001 15.3 l-0.42 0 c-0.56 0 -0.58 0 -0.44 -0.58 c0.1 -0.44 0.64 -2.82 0.76 -3.4 c0.02 -0.04 0.06 -0.08 0.08 -0.08 c0.04 0 0.08 0.04 0.1 0.06 c0.08 0.24 0.16 0.84 0.24 1.08 c0.18 0.76 0.3 1.4 0.48 2.22 c0.18 0.72 0.1 0.72 -0.26 0.72 c-0.18 0 -0.36 -0.02 -0.54 -0.02 z M413.0320000000001 5.460000000000001 c0.06 0.28 0.02 13.6 0.02 13.94 c0 0.6 -0.22 0.58 -0.62 0.58 c-0.6 0 -1.44 0.1 -1.62 -0.1 c-0.16 -0.14 -3.12 -7.28 -3.54 -8.18 c-0.04 -0.08 -0.14 -0.28 -0.22 -0.24 c-0.1 0.04 -0.06 0.18 -0.06 0.26 c-0.02 0.7 0.1 6.74 0.1 7.7 c0 0.48 -0.02 0.56 -0.42 0.56 l-1 0 c-0.26 0 -0.58 -0.02 -0.84 0.02 c-0.2 0 -0.3 -0.06 -0.32 -0.26 l0 -1.58 c0.04 -1.68 0 -11.64 0 -12.38 c0 -0.64 0.18 -0.76 0.82 -0.76 c0.44 -0.02 0.88 -0.02 1.32 -0.02 c0.14 0 0.22 0.02 0.3 0.2 c0.54 1.26 2.84 7.04 3.2 7.74 c0.06 0.14 0.28 0.7 0.4 0.76 l0.02 0 c0.08 -0.08 0.06 -0.48 0.06 -0.6 c0 -0.3 -0.16 -7.32 -0.16 -7.46 c0 -0.2 -0.06 -0.38 0.04 -0.52 c0.06 -0.08 0.32 -0.1 0.42 -0.12 c0.56 -0.04 1.22 0.02 1.78 0 c0.28 0 0.26 0.2 0.32 0.46 z M433.13800000000015 16.32 c0.12 -0.26 0.22 -0.52 0.32 -0.78 c0.22 -0.64 0.26 -1.3 0.32 -1.96 c0.12 -1.4 0.08 -2.82 -0.28 -4.18 c-0.44 -1.74 -1.56 -3.34 -3.24 -4.08 c-0.76 -0.34 -1.62 -0.38 -2.44 -0.36 c-0.86 0 -1.74 -0.04 -2.6 0.04 c-0.24 0.02 -0.36 0.14 -0.4 0.36 c-0.04 0.24 -0.08 0.48 -0.08 0.7 c0.04 1.22 0 4.84 0.04 5.44 c0.02 0.54 -0.04 1.2 -0.04 1.74 c0.02 1.34 0 2.7 0 4.04 c0 0.56 -0.02 1.1 -0.02 1.66 c0 0.6 -0.22 0.86 1.42 0.86 c1.46 0 2.98 -0.12 4.36 -0.64 c1.28 -0.46 2.08 -1.64 2.64 -2.84 z M427.31800000000015 14.24 l0 -2.4 c0 -1.52 0.04 -2.5 -0.02 -3.78 l0 -0.24 c0.02 -0.42 0.08 -0.44 0.52 -0.44 c0.58 -0.02 1 0.12 1.5 0.32 s0.78 0.64 1.04 1.06 c0.5 0.82 0.7 1.72 0.74 2.66 c0.02 0.54 0.04 1.08 0.04 1.62 c0 2.56 -1.5 4.34 -2.82 4.34 c-0.88 0 -1.02 0.06 -1.02 -0.52 c0 -0.6 0.04 -1.2 0.04 -1.8 c-0.02 -0.26 -0.02 -0.54 -0.02 -0.82 z M448.24400000000014 14.84 c-0.06 -2.28 -0.04 -4.7 -0.02 -6.96 c0 -0.7 -0.04 -1.46 -0.04 -2.16 c0 -0.76 -0.3 -0.72 -0.7 -0.74 c-0.58 -0.02 -0.84 -0.02 -1.42 -0.02 c-0.38 -0.02 -0.54 0.08 -0.54 0.46 c0 1.96 -0.06 7.5 -0.04 8.3 s0.1 4.44 0.06 5.24 c-0.02 0.28 0 0.56 0.02 0.84 c0.02 0.1 0.08 0.2 0.24 0.2 c0.66 -0.04 1.28 -0.04 1.94 -0.06 c0.24 -0.02 0.44 -0.08 0.54 -0.34 c0.02 -0.14 -0.04 -3.8 -0.04 -4.76 z M459.95000000000016 15.9 l-0.02 0 c0 0.5 -0.02 1.02 0 1.54 c0.02 0.64 0.06 1.28 0.1 1.92 c0 0.22 0.06 0.28 0.26 0.32 c0.42 0.1 0.82 0.12 1.24 0.12 c1.08 -0.04 2.16 0.04 3.24 0 c0.44 -0.02 0.64 0.02 1.08 -0.06 c0.4 -0.08 0.54 -0.3 0.54 -0.9 c-0.04 -0.38 -0.02 -0.54 -0.02 -1 c0 -0.66 -0.46 -0.88 -0.86 -0.86 c-0.28 0.02 -1.62 -0.02 -2.16 -0.02 c-0.9 0.02 -0.76 0.14 -0.76 -0.8 c0 -0.76 0.02 -1.74 0.02 -2.52 c0 -0.42 0.04 -0.56 0.44 -0.56 l2.5 0 c0.4 0.06 0.68 -0.22 0.68 -0.64 s0.04 -0.44 0.04 -0.86 l-0.06 -0.6 c-0.04 -0.34 -0.16 -0.46 -0.5 -0.46 c-0.22 0 -0.44 0.02 -0.66 0.04 c-0.86 0.06 -1.26 -0.06 -2.1 0 c-0.28 0 -0.32 -0.04 -0.34 -0.3 c-0.08 -0.78 0 -1.64 0.08 -2.42 c0.02 -0.32 0.1 -0.38 0.4 -0.4 l2.82 -0.02 c0.38 -0.04 0.5 -0.02 0.48 -0.4 c-0.04 -0.58 0.02 -1.18 -0.04 -1.76 c-0.04 -0.32 -0.14 -0.38 -0.5 -0.38 c-0.6 0.02 -0.74 0.02 -1.34 0.06 c-0.6 0.02 -3 0.02 -3.58 0.02 c-0.84 0 -0.9 -0.06 -0.92 0.96 c-0.04 0.8 -0.02 1.62 -0.02 2.44 c0 1.4 -0.08 6.42 -0.04 7.54 z M486.55600000000015 5.460000000000001 c0.06 0.28 0.02 13.6 0.02 13.94 c0 0.6 -0.22 0.58 -0.62 0.58 c-0.6 0 -1.44 0.1 -1.62 -0.1 c-0.16 -0.14 -3.12 -7.28 -3.54 -8.18 c-0.04 -0.08 -0.14 -0.28 -0.22 -0.24 c-0.1 0.04 -0.06 0.18 -0.06 0.26 c-0.02 0.7 0.1 6.74 0.1 7.7 c0 0.48 -0.02 0.56 -0.42 0.56 l-1 0 c-0.26 0 -0.58 -0.02 -0.84 0.02 c-0.2 0 -0.3 -0.06 -0.32 -0.26 l0 -1.58 c0.04 -1.68 0 -11.64 0 -12.38 c0 -0.64 0.18 -0.76 0.82 -0.76 c0.44 -0.02 0.88 -0.02 1.32 -0.02 c0.14 0 0.22 0.02 0.3 0.2 c0.54 1.26 2.84 7.04 3.2 7.74 c0.06 0.14 0.28 0.7 0.4 0.76 l0.02 0 c0.08 -0.08 0.06 -0.48 0.06 -0.6 c0 -0.3 -0.16 -7.32 -0.16 -7.46 c0 -0.2 -0.06 -0.38 0.04 -0.52 c0.06 -0.08 0.32 -0.1 0.42 -0.12 c0.56 -0.04 1.22 0.02 1.78 0 c0.28 0 0.26 0.2 0.32 0.46 z"></path></g>
			</g>
		</svg>
	