
        <svg xmlns="http://www.w3.org/2000/svg" xmlns:xlink="http://www.w3.org/1999/xlink" version="1.1" width="3162.096034254256" 
        height="1105.6124072303148" viewBox="0 0 3162.096034254256 1105.6124072303148">
			
			<g transform="scale(8.104801712712815) translate(10, 10)">
				<defs id="SvgjsDefs1580"></defs><g id="SvgjsG1581" featureKey="symbolFeature-0" transform="matrix(2.0060742604196937,0,0,2.0060742604196937,-23.494031901694203,-3.9499604215593758)" fill="#506084"><polygon xmlns="http://www.w3.org/2000/svg" points="21.014,31.301 21.321,30.416 22.036,31.131 22.547,31.301 23.262,31.982 24.283,31.914   24.896,31.404 26.224,30.927 27.246,30.076 28.097,29.905 30.617,32.698 31.4,34.094 31.06,32.051 28.37,29.19 26.395,28.1   26.395,28.475 27.042,29.463 26.326,30.041 24.079,29.939 23.5,30.859 22.376,30.825 21.389,29.565 19.448,32.153 19.346,33.583   20.061,35.83 20.299,34.707 19.925,33.651 20.027,32.527 "></polygon><polygon xmlns="http://www.w3.org/2000/svg" points="22.138,28.611 22.138,27.522 21.185,29.258 "></polygon><polygon xmlns="http://www.w3.org/2000/svg" points="24.488,28.543 25.067,27.794 24.488,27.317 24.42,26.432 24.181,25.513 23.841,27.419 24.283,27.862   "></polygon><polygon xmlns="http://www.w3.org/2000/svg" points="21.082,25.819 19.925,26.432 21.287,26.262 "></polygon><path xmlns="http://www.w3.org/2000/svg" d="M27.28,23.435l0.749-0.715l3.439-0.341L33,22.107l0.102-0.375l-1.362-0.749l-3.235,0.511l-1.737,0.987  c0,0-1.499-0.33-1.601-0.33s1.124,2.509,1.124,2.509L27.28,23.435z"></path><polygon xmlns="http://www.w3.org/2000/svg" points="30.515,23.742 30.106,23.435 28.506,23.503 27.757,24.184 27.791,24.729 28.131,24.831   28.216,24.619 28.502,24.572 28.634,24.797 30.651,24.457 31.434,24.525 31.434,25.342 31.911,25.308 32.694,24.048 31.639,24.116   "></polygon><polygon xmlns="http://www.w3.org/2000/svg" points="28.37,25.581 28.302,26.023 30.617,26.432 31.026,26.364 29.017,25.581 "></polygon><polygon xmlns="http://www.w3.org/2000/svg" points="23.091,33.719 26.258,33.719 27.552,33.957 28.642,34.536 28.097,34.979 27.723,35.83 29.323,34.638   30.004,33.889 29.357,32.8 28.914,33.515 26.088,33.31 21.832,33.549 20.572,33.821 21.116,34.673 21.253,35.354 21.457,35.66   21.729,35.354 21.627,33.992 "></polygon><polygon xmlns="http://www.w3.org/2000/svg" points="22.819,38.555 24.692,38.623 25.714,38.01 25.884,36.852 22.138,37.022 "></polygon><polygon xmlns="http://www.w3.org/2000/svg" points="42.922,31.285 43.514,31.103 42.922,28.87 44.198,26.501 41.829,28.597 42.466,30.328 41.236,32.606   42.148,32.697 "></polygon><path xmlns="http://www.w3.org/2000/svg" d="M51.186,52.377c0,0,2.432-0.323,3.32-0.781l-3.182-0.564l-5.11-1.865l-3.107-1.657l-0.483-5.317l-0.345-3.867  l-0.483-2.9l1.243-1.105l1.795-3.246l0.967-1.864v-2.693l-0.414-1.243c0,0,2.257-0.872,2.578-1.964  c0.321-1.092-1.059-1.903-1.059-1.903l-0.345-4.42l-2.762-8.77l-1.458-1.199L38.13,5.097l-1.44,0.297l-0.508,0.974L32.07,4.841  l6.016-0.381l1.786,0.528l-0.356-0.293L36.96,3.314l-1.657-0.069L32.472,2.14l-1.45,0.345l-2.049-0.516L25.36,3.038l-3.591,1.381  l-1.934,2.9L19.49,8.493l-0.829,0.76l-1.795,4.212l-0.76,3.453l-0.028,0.155l0.783-0.455l2.161-5.719l-0.593,4.66l1.483-3.982  l0.169-3.432l1.822-3.135l1.101-0.254l0.89-0.763l1.991-0.042l2.372-1.101l2.203-0.212l-1.567,1.186l1.652,0.042l0.212-0.254  l2.627-0.254l-1.568,0.72l-0.127,0.551l-2.415,2.076l1.44,5.126l3.177,1.144l3.601,2.33l-3.135-0.593l-1.779-0.72l0.508,2.499  l5.761,1.186l5.041,1.864l-0.424-2.372l1.991,1.144l-2.33-7.922L38.38,6.282l4.702,2.161l1.144,2.669l1.652,6.397l0.339,4.067  c0,0-8.642-4.829-21.097-4.533c-5.594,0.133-8.879,0.809-10.037,1.015s-3.191,0.6-3.365,1.989c-0.197,1.575,4.098,3.538,5.823,4.261  l0.059,0.325l-0.41,5.558l1.23,7.7l1.048,2.096l0.182,1.822l1.64,2.278l0.236,0.04l0.033,0.068l-0.414,2.693l-4.281,1.45  l-3.279,1.505l2.255,1.026l1.148-0.344L31.878,60h11.47l1.282-9.048l0.57,6.697l4.203-4.488l-3.277-2.494l2.85,0.926L51.186,52.377z   M41.168,20.349c3.416,1.15,4.396,2.435,4.633,3.111s-0.372,1.387-0.372,1.387s-0.575-2.266-4.768-3.991  c-2.939-1.209-7.981-1.86-7.981-1.86S37.753,19.2,41.168,20.349z M16.954,20.924c-0.624,0.554-0.277,1.188-0.277,1.188  s-1.143-0.748-0.061-1.729c1.018-0.922,5.58-1.15,5.58-1.15S17.867,20.113,16.954,20.924z M20.472,41.353v-2.87l-0.547-1.139  l-0.091,1.185l-0.82-1.367l-0.228-2.551l-0.638-3.053l0.091-3.554l0.41-2.369l0.002-0.024l0.831,0.072l-0.068-0.681l2.384-0.034  l-0.034,0.613l0.885-0.477l-0.102,1.056l0.545-0.919l0.272-1.76l-1.09-1.294l-0.953-0.477l-2.247-0.272l-0.521,0.31  c0.588-0.531,2.132-1.25,6.202-1.625c6.925-0.638,10.388,0.592,10.388,0.592l0.729,2.141l1.367-0.091l-0.501-1.185l0.228-0.501  l0.911,0.228c0,0,1.276,1.321,1.321,1.458c0.046,0.137,0.091,2.005,0.091,2.005l-0.911,0.228l-2.688,2.87l0.046,0.319l2.87-1.002  l-0.683,1.731l-2.642,1.23l-0.364,3.508l-0.547,0.729l-0.273,3.098l-1.048,0.911l0.182-4.374l-0.957,2.961l-0.228,2.096  l-1.595,1.458l0.046-1.64l-1.048,1.139l-1.048,2.278l-1.412,0.957l-2.415,0.182l-0.501-0.365h-2.187L20.472,41.353z M18.195,22.433  l1.116-0.213l1.464,1.022l1.43,0.068l0.443,0.511l-0.034,0.545l-0.647-0.068l-0.851-0.647h-1.26l-0.161-0.011l-0.724,0.76  l-0.363-0.035l-0.369-0.872L18.195,22.433z M41.71,58.718l-4.987,0.784l-4.203,0.142l-9.618-7.338l-1.567-1.852l-2.85-1.211  l1.852-1.282l2.351-0.499l0.071-3.135l4.631,1.567l5.058,3.491l-4.56-2.565l-4.631-1.069l3.277,2.137l3.776,1.781l4.417,2.992  l1.211-4.346l0.926-3.847l1.567,8.122l0.499-8.834l-0.071-5.343l-1.71,2.209l-2.28,0.997l1.425-3.135l0.641-4.061l0.143-2.066  l1.852-2.422l1.425,2.066l0.997-6.056l1.425,0.499l0.713-0.712l1.211,0.214l0.285,3.063l-1.852,3.277l-1.211,1.852l-1.995-0.997  l-0.499,2.066l1.282-0.926v2.493l0.57,5.415l0.997,9.476l-1.923-3.349l-0.214,4.488l2.351,3.562L41.71,58.718z"></path></g><g id="SvgjsG1582" featureKey="nameFeature-0" transform="matrix(1.6397552430677238,0,0,1.6397552430677238,102.75277518205604,16.864811285591724)" fill="#9a39d7"><path d="M18.84 32.64 c0.24 -0.52 0.44 -1.04 0.64 -1.56 c0.44 -1.28 0.52 -2.6 0.64 -3.92 c0.24 -2.8 0.16 -5.64 -0.56 -8.36 c-0.88 -3.48 -3.12 -6.68 -6.48 -8.16 c-1.52 -0.68 -3.24 -0.76 -4.88 -0.72 c-1.72 0 -3.48 -0.08 -5.2 0.08 c-0.48 0.04 -0.72 0.28 -0.8 0.72 c-0.08 0.48 -0.16 0.96 -0.16 1.4 c0.08 2.44 0 9.68 0.08 10.88 c0.04 1.08 -0.08 2.4 -0.08 3.48 c0.04 2.68 0 5.4 0 8.08 c0 1.12 -0.04 2.2 -0.04 3.32 c0 1.2 -0.44 1.72 2.84 1.72 c2.92 0 5.96 -0.24 8.72 -1.28 c2.56 -0.92 4.16 -3.28 5.28 -5.68 z M7.2 28.48 l0 -4.8 c0 -3.04 0.08 -5 -0.04 -7.56 l0 -0.48 c0.04 -0.84 0.16 -0.88 1.04 -0.88 c1.16 -0.04 2 0.24 3 0.64 s1.56 1.28 2.08 2.12 c1 1.64 1.4 3.44 1.48 5.32 c0.04 1.08 0.08 2.16 0.08 3.24 c0 5.12 -3 8.68 -5.64 8.68 c-1.76 0 -2.04 0.12 -2.04 -1.04 c0 -1.2 0.08 -2.4 0.08 -3.6 c-0.04 -0.52 -0.04 -1.08 -0.04 -1.64 z M32.168 37.48 c0 -1.24 -0.96 -2.36 -2.24 -2.48 c-2.72 -0.28 -3.8 3.72 -1.32 4.8 c1 0.44 2.24 0.16 2.92 -0.64 c0.44 -0.48 0.64 -1.08 0.64 -1.68 z M44.656000000000006 29.68 c-0.12 -4.56 -0.08 -9.4 -0.04 -13.92 c0 -1.4 -0.08 -2.92 -0.08 -4.32 c0 -1.52 -0.6 -1.44 -1.4 -1.48 c-1.16 -0.04 -1.68 -0.04 -2.84 -0.04 c-0.76 -0.04 -1.08 0.16 -1.08 0.92 c0 3.92 -0.12 15 -0.08 16.6 s0.2 8.88 0.12 10.48 c-0.04 0.56 0 1.12 0.04 1.68 c0.04 0.2 0.16 0.4 0.48 0.4 c1.32 -0.08 2.56 -0.08 3.88 -0.12 c0.48 -0.04 0.88 -0.16 1.08 -0.68 c0.04 -0.28 -0.08 -7.6 -0.08 -9.52 z M56.664 37.48 c0 -1.24 -0.96 -2.36 -2.24 -2.48 c-2.72 -0.28 -3.8 3.72 -1.32 4.8 c1 0.44 2.24 0.16 2.92 -0.64 c0.44 -0.48 0.64 -1.08 0.64 -1.68 z M68.592 37 c0 -1.04 0 -7.6 0.04 -8.12 c0.04 -0.12 0.12 -0.36 0.28 -0.36 s0.24 0.08 0.28 0.2 c1.6 3.12 3 6.24 4.44 9.28 c0.2 0.44 0.64 1.72 0.76 1.84 c0.16 0.24 0.44 0.16 0.68 0.16 l4.4 0.04 c0.52 0 0.64 -0.32 0.52 -0.76 c-0.32 -1.2 -2.6 -5.44 -3.12 -6.48 c-0.36 -0.8 -2.76 -5.44 -2.84 -5.8 c-0.08 -0.16 0.52 -0.44 0.6 -0.56 c1.92 -1.72 3.64 -3.48 4 -6.16 c0.4 -2.64 -0.2 -5.52 -1.92 -7.64 c-1.32 -1.56 -3.04 -2.48 -5.08 -2.6 c-1.24 -0.08 -2.44 0.04 -3.68 0 c-1.08 -0.04 -1.84 -0.04 -3.2 -0.04 c-0.64 0 -1.04 0.36 -1.08 1.04 l0 0.48 c-0.08 3.08 0 6.16 0.04 9.2 c0 4.64 -0.08 16.88 -0.08 18.64 c0 0.52 0.08 0.64 0.56 0.64 c0.28 0 0.6 0.04 0.88 0.04 c1.12 0 1.8 -0.04 2.96 -0.04 c0.88 0 0.56 -1.44 0.56 -3 z M68.592 21.4 l0.04 -4.04 c0.04 -0.6 -0.16 -1.8 0.4 -2.24 c0.76 -0.56 2.32 0 3 0.48 c2 1.36 1.84 4.72 0.76 6.6 c-0.52 0.88 -1.4 1.4 -2.4 1.68 c-0.6 0.16 -1.72 0.36 -1.76 -0.6 c0 -0.64 -0.04 -1.88 -0.04 -1.88 z M91.96 37.48 c0 -1.24 -0.96 -2.36 -2.24 -2.48 c-2.72 -0.28 -3.8 3.72 -1.32 4.8 c1 0.44 2.24 0.16 2.92 -0.64 c0.44 -0.48 0.64 -1.08 0.64 -1.68 z M98.968 13.079999999999998 c0 1.92 -0.08 22.56 0 24.4 c0.04 0.44 0.04 0.88 0.04 1.32 c0 0.32 0.2 0.52 0.48 0.64 c0.24 0.08 0.56 0.16 0.8 0.16 c1.16 -0.12 2.4 0 3.6 -0.04 c2.08 0.16 3.96 -0.32 5.76 -1.28 c1.68 -0.96 2.6 -2.68 3.24 -4.48 c0.52 -1.52 0.44 -3.32 0.16 -4.88 c-0.24 -1.4 -0.88 -2.76 -1.72 -3.88 c-0.12 -0.16 -1.84 -1.24 -1.76 -1.32 c1.04 -1.48 2.52 -2.72 2.72 -4.56 c0.16 -1.6 -0.2 -3.24 -0.76 -4.72 c-0.36 -0.96 -0.84 -1.88 -1.6 -2.6 c-1.28 -1.2 -3.2 -1.72 -4.88 -1.88 c-1.72 -0.16 -3.32 -0.04 -5.04 -0.12 c-0.6 0 -0.88 0.24 -0.88 0.88 c0 0.84 -0.16 1.52 -0.16 2.36 z M103.88799999999999 20.36 c-0.04 -0.44 0 -3.96 -0.08 -5.28 c-0.04 -0.48 0.24 -0.72 0.76 -0.6 c0.4 0.08 0.72 0.12 1.04 0.36 c1 0.76 1.76 1.68 1.8 2.96 c0 0.64 0 1.28 -0.24 1.88 c-0.28 0.72 -0.68 1.28 -1.4 1.64 c-0.48 0.24 -0.92 0.52 -1.4 0.72 c-0.24 0.08 -0.48 -0.04 -0.52 -0.28 c0 -0.48 0.04 -1.4 0.04 -1.4 z M107.888 30.96 c0 0.2 -0.04 0.56 -0.04 0.92 c-0.04 1.2 -1.6 2.72 -3.4 2.76 c-0.12 0 -0.32 -0.12 -0.36 -0.24 c-0.08 -0.24 -0.16 -0.52 -0.16 -0.8 c-0.04 -1.24 0 -2.44 0 -3.76 c0.12 -0.84 0.04 -1.72 0.04 -2.6 c0.04 -0.68 0.2 -0.8 0.84 -0.92 c0.96 -0.12 1.84 0.28 2.28 1.04 c0.52 0.92 0.72 1.92 0.8 2.96 l0 0.64 z M125.216 37.48 c0 -1.24 -0.96 -2.36 -2.24 -2.48 c-2.72 -0.28 -3.8 3.72 -1.32 4.8 c1 0.44 2.24 0.16 2.92 -0.64 c0.44 -0.48 0.64 -1.08 0.64 -1.68 z M137.624 32.76 c0 -1.4 -0.2 -5.2 -0.16 -6 c0 -0.12 0.08 -0.28 0.12 -0.28 c0.08 0 0.24 0.08 0.28 0.12 c1.28 1.68 7.28 13.32 8 13.36 c0.2 0.04 0.4 0.04 0.6 0.04 c1.36 -0.08 2.56 0 3.92 0 c1.4 0 0.48 -1.36 0.24 -1.72 c-0.36 -0.52 -5.12 -9.04 -5.4 -9.56 c-0.8 -1.36 -1.48 -2.84 -2.28 -4.16 c-0.08 -0.16 -0.16 -0.4 -0.12 -0.56 c0.08 -0.48 0.2 -0.92 0.4 -1.36 c0.96 -1.88 1.96 -3.8 3.12 -5.6 c1.28 -2.04 2 -3.32 3.04 -5.16 c0.24 -0.44 0.4 -0.92 0.56 -1.44 c0.04 -0.2 -0.12 -0.4 -0.36 -0.4 c-0.76 -0.04 -3.52 0 -4.4 0 c-0.4 0 -0.8 0.08 -1 0.44 c-0.52 1 -5.88 10.8 -6.4 11.68 c-0.04 0.08 -0.16 0.12 -0.28 0.12 c0 0 -0.08 -0.12 -0.08 -0.2 c-0.04 -2.24 0.36 -9.56 0.28 -11.04 c-0.04 -0.88 -0.2 -0.96 -1.08 -1 c-0.96 -0.04 -2.28 -0.04 -3.24 -0.04 c-0.88 0 -0.96 0.48 -1.08 1.12 c-0.04 0.12 -0.04 3.88 -0.04 5.56 c0 2.44 -0.2 17.72 0.08 22.56 c0 0.48 0.12 0.76 0.52 0.76 c1.08 -0.08 2.68 0 3.76 0 c0.76 0 0.88 -0.08 0.88 -1.36 c0 -1.72 0.16 -3.28 0.16 -5.4 c0 -0.16 -0.04 -0.32 -0.04 -0.48 z M163.072 37.48 c0 -1.24 -0.96 -2.36 -2.24 -2.48 c-2.72 -0.28 -3.8 3.72 -1.32 4.8 c1 0.44 2.24 0.16 2.92 -0.64 c0.44 -0.48 0.64 -1.08 0.64 -1.68 z"></path></g>
			</g>
		</svg>
	